<?xml version="1.0" encoding="UTF-8" standalone="no"?>
<!-- Generator: Adobe Illustrator 26.0.2, SVG Export Plug-In . SVG Version: 6.00 Build 0)  -->

<svg
    version="1.1"
    id="Layer_1"
    x="0px"
    y="0px"
    viewBox="0 0 71.800003 71.699997"
    xml:space="preserve"
    sodipodi:docname="jira-logo-gradient-blue-attribution_rgb.svg"
    width="71.800003"
    height="71.699997"
    inkscape:version="1.1.2 (0a00cf5339, 2022-02-04)"
    xmlns:inkscape="http://www.inkscape.org/namespaces/inkscape"
    xmlns:sodipodi="http://sodipodi.sourceforge.net/DTD/sodipodi-0.dtd"
    xmlns="http://www.w3.org/2000/svg"
    xmlns:svg="http://www.w3.org/2000/svg"><defs
   id="defs53" /><sodipodi:namedview
    id="namedview51"
    pagecolor="#ffffff"
    bordercolor="#666666"
    borderopacity="1.0"
    inkscape:pageshadow="2"
    inkscape:pageopacity="0.0"
    inkscape:pagecheckerboard="0"
    showgrid="false"
    inkscape:zoom="3.16"
    inkscape:cx="142.87975"
    inkscape:cy="16.613924"
    inkscape:window-width="2048"
    inkscape:window-height="1216"
    inkscape:window-x="0"
    inkscape:window-y="0"
    inkscape:window-maximized="1"
    inkscape:current-layer="g48" />
    <style
        type="text/css"
        id="style2">
	.st0{fill:#20385B;}
	.st1{fill:#0082FF;}
	.st2{fill:url(#SVGID_1_);}
	.st3{fill:url(#SVGID_00000160896060327195637080000015721837646796660413_);}
	.st4{fill:#0052CC;}
</style>
    <g
        id="g48"
        transform="translate(-27.1,-83.2)">
	<g
        id="Logo_Lock-up">




		<path
            class="st1"
            d="M 95.9,83.2 H 61.3 c 0,8.6 7,15.6 15.6,15.6 0,0 0,0 0,0 h 6.4 v 6.1 c 0,8.6 7,15.6 15.6,15.6 v 0 -34.3 c 0,-1.7 -1.4,-3 -3,-3 z"
            id="path12" />

        <linearGradient
            id="SVGID_1_"
            gradientUnits="userSpaceOnUse"
            x1="81.0326"
            y1="101.5272"
            x2="66.322601"
            y2="86.357201"
            gradientTransform="matrix(1,0,0,-1,0,202)">
			<stop
                offset="0.18"
                style="stop-color:#0050D3"
                id="stop14" />
            <stop
                offset="1"
                style="stop-color:#0082FF"
                id="stop16" />
		</linearGradient>
        <path
            class="st2"
            d="M 78.8,100.4 H 44.2 c 0,8.6 7,15.6 15.6,15.6 h 6.4 v 6.2 c 0,8.6 7,15.6 15.6,15.6 v -34.3 c 0,-1.7 -1.4,-3.1 -3,-3.1 z"
            id="path19"
            style="fill:url(#SVGID_1_)" />

        <linearGradient
            id="SVGID_00000142868825077026769710000002171626036159817864_"
            gradientUnits="userSpaceOnUse"
            x1="64.8974"
            y1="84.202599"
            x2="47.887402"
            y2="67.652603"
            gradientTransform="matrix(1,0,0,-1,0,202)">
			<stop
                offset="0.18"
                style="stop-color:#0050D3"
                id="stop21" />
            <stop
                offset="1"
                style="stop-color:#0082FF"
                id="stop23" />
		</linearGradient>
        <path
            style="fill:url(#SVGID_00000142868825077026769710000002171626036159817864_)"
            d="M 61.7,117.6 H 27.1 c 0,8.6 7,15.6 15.6,15.6 v 0 H 49 v 6.1 c 0,8.6 7,15.6 15.6,15.6 v 0 -34.4 c 0.1,-1.5 -1.3,-2.9 -2.9,-2.9 z"
            id="path26" />
	</g>

</g>
</svg>
